<?xml version="1.0" standalone="no"?>
<svg xmlns:xlink="http://www.w3.org/1999/xlink" id="wave" style="transform:rotate(180deg); transition: 0.3s" viewBox="0 0 1440 100" version="1.1" xmlns="http://www.w3.org/2000/svg"><defs><linearGradient id="sw-gradient-0" x1="0" x2="0" y1="1" y2="0"><stop stop-color="rgba(30, 182, 209, 1)" offset="0%"/><stop stop-color="rgba(232.848, 244.608, 255, 1)" offset="100%"/></linearGradient></defs><path style="transform:translate(0, 0px); opacity:1" fill="url(#sw-gradient-0)" d="M0,20L40,26.7C80,33,160,47,240,43.3C320,40,400,20,480,25C560,30,640,60,720,66.7C800,73,880,57,960,43.3C1040,30,1120,20,1200,25C1280,30,1360,50,1440,55C1520,60,1600,50,1680,41.7C1760,33,1840,27,1920,23.3C2000,20,2080,20,2160,16.7C2240,13,2320,7,2400,15C2480,23,2560,47,2640,60C2720,73,2800,77,2880,76.7C2960,77,3040,73,3120,75C3200,77,3280,83,3360,76.7C3440,70,3520,50,3600,45C3680,40,3760,50,3840,50C3920,50,4000,40,4080,31.7C4160,23,4240,17,4320,21.7C4400,27,4480,43,4560,43.3C4640,43,4720,27,4800,25C4880,23,4960,37,5040,38.3C5120,40,5200,30,5280,25C5360,20,5440,20,5520,16.7C5600,13,5680,7,5720,3.3L5760,0L5760,100L5720,100C5680,100,5600,100,5520,100C5440,100,5360,100,5280,100C5200,100,5120,100,5040,100C4960,100,4880,100,4800,100C4720,100,4640,100,4560,100C4480,100,4400,100,4320,100C4240,100,4160,100,4080,100C4000,100,3920,100,3840,100C3760,100,3680,100,3600,100C3520,100,3440,100,3360,100C3280,100,3200,100,3120,100C3040,100,2960,100,2880,100C2800,100,2720,100,2640,100C2560,100,2480,100,2400,100C2320,100,2240,100,2160,100C2080,100,2000,100,1920,100C1840,100,1760,100,1680,100C1600,100,1520,100,1440,100C1360,100,1280,100,1200,100C1120,100,1040,100,960,100C880,100,800,100,720,100C640,100,560,100,480,100C400,100,320,100,240,100C160,100,80,100,40,100L0,100Z"/></svg>